<?xml version="1.0" encoding="utf-8"?>
<!-- Generator: Adobe Illustrator 19.2.0, SVG Export Plug-In . SVG Version: 6.00 Build 0)  -->
<svg version="1.1" xmlns="http://www.w3.org/2000/svg" xmlns:xlink="http://www.w3.org/1999/xlink" x="0px" y="0px"
	 viewBox="0 0 1080 1080" style="enable-background:new 0 0 1080 1080;" xml:space="preserve">
<style type="text/css">
	.st0{fill:#CCB59B;stroke:#060706;stroke-width:18;stroke-miterlimit:10;}
	.st1{fill:#94BC60;stroke:#080707;stroke-width:18;stroke-miterlimit:10;}
	.st2{fill:#65933F;stroke:#080707;stroke-width:18;stroke-miterlimit:10;}
	.st3{fill:#DBC6A9;stroke:#060706;stroke-width:18;stroke-miterlimit:10;}
	.st4{fill:#010101;}
	.st5{fill:#E0E0E0;stroke:#212121;stroke-width:11.34;stroke-miterlimit:10;}
	.st6{fill:#B84E4F;}
	.st7{fill:#FFFFFF;stroke:#000000;stroke-width:16;stroke-miterlimit:10;}
	.st8{fill:#BFBEBE;}
	.st9{fill:#FCF4C7;}
	.st10{fill:#FFFFFF;}
	.st11{fill:#FFFFFF;stroke:#000000;stroke-miterlimit:10;}
	.st12{fill:#D1BC9D;stroke:#060706;stroke-width:23.76;stroke-miterlimit:10;}
	.st13{fill:#9DCD67;stroke:#080707;stroke-width:23.76;stroke-miterlimit:10;}
	.st14{fill:#6CA041;stroke:#080707;stroke-width:23.76;stroke-miterlimit:10;}
	.st15{fill:#FFFFFF;stroke:#000000;stroke-width:0.9669;stroke-miterlimit:10;}
	.st16{fill:#ED1C24;stroke:#000000;stroke-width:0.9669;stroke-miterlimit:10;}
	.st17{fill:#222161;stroke:#000000;stroke-width:0.9669;stroke-miterlimit:10;}
	.st18{fill:#FFCA06;stroke:#000000;stroke-width:0.9669;stroke-miterlimit:10;}
	.st19{fill:#FFFFFF;stroke:#000000;stroke-width:0.7138;stroke-miterlimit:10;}
	.st20{fill:#ED1C24;stroke:#000000;stroke-width:0.7138;stroke-miterlimit:10;}
	.st21{fill:#222161;stroke:#000000;stroke-width:0.7138;stroke-miterlimit:10;}
	.st22{fill:#FFCA06;stroke:#000000;stroke-width:0.7138;stroke-miterlimit:10;}
	.st23{fill:#FFFFFF;stroke:#000000;stroke-width:0.812;stroke-miterlimit:10;}
	.st24{fill:#ED1C24;stroke:#000000;stroke-width:0.812;stroke-miterlimit:10;}
	.st25{fill:#222161;stroke:#000000;stroke-width:0.812;stroke-miterlimit:10;}
	.st26{fill:#FFCA06;stroke:#000000;stroke-width:0.812;stroke-miterlimit:10;}
	.st27{fill:#CCB59B;stroke:#060706;stroke-width:11.34;stroke-miterlimit:10;}
	.st28{fill:#94BC60;stroke:#080707;stroke-width:11.34;stroke-miterlimit:10;}
	.st29{fill:#65933F;stroke:#080707;stroke-width:11.34;stroke-miterlimit:10;}
	.st30{fill:#DBC6A9;stroke:#060706;stroke-width:11.34;stroke-miterlimit:10;}
	.st31{fill:#FFFFFF;stroke:#000000;stroke-width:0.5116;stroke-miterlimit:10;}
	.st32{fill:#ED1C24;stroke:#000000;stroke-width:0.5116;stroke-miterlimit:10;}
	.st33{fill:#222161;stroke:#000000;stroke-width:0.5116;stroke-miterlimit:10;}
	.st34{fill:#FFCA06;stroke:#000000;stroke-width:0.5116;stroke-miterlimit:10;}
	.st35{fill:#F9F3D2;}
	.st36{fill:#FDF5A2;stroke:#212121;stroke-width:6.3;stroke-miterlimit:10;}
	.st37{fill:#FACE54;}
	.st38{fill:#F8E883;}
	.st39{fill:#F7EFBA;stroke:#212121;stroke-width:6.3;stroke-miterlimit:10;}
	.st40{fill:#F8981E;}
	.st41{fill:#FEDA46;}
	.st42{fill:#F0542D;}
	.st43{fill:#AB2823;}
	.st44{fill:#231F20;}
	.st45{fill:#B7AD7D;stroke:#212121;stroke-width:6.3;stroke-miterlimit:10;}
</style>
<g id="Layer_5">
</g>
<g id="Layer_4">
</g>
<g id="Layer_3">
</g>
<g id="Layer_2">
</g>
<g id="Layer_1">
	<g>
		<path class="st4" d="M1035.9,180.9h-68v-23.2c0.4-9.2-5.6-17.4-14.4-20c-47.1-12.3-95.5-18.5-144.2-18.4c-80,0-189,18-269.6,100
			c-80-82.8-189.8-100-269.6-100c-48.7-0.1-97.1,6.1-144.2,18.4c-8.8,2.6-14.8,10.8-14.4,20v23H44.1c-11,0-20,9-20,20v638.8
			c0,11.1,9,20,20,20c3.4,0,6.8-0.9,9.8-2.6c2-1,202-110.4,481.2-40h4.8c1.6,0.2,3.2,0.2,4.8,0c280-71,480,38.2,481.2,40
			c6.2,3.6,13.8,3.6,20,0c6.2-3.5,10-10.1,10-17.2V200.9C1055.9,189.8,1047,180.9,1035.9,180.9z M64.1,807.7V220.9h47.8v501.6
			c-0.1,11.1,8.7,20.1,19.8,20.2c1.1,0,2.2-0.1,3.2-0.2c41.4-6.3,83.2-9.7,125-10c58-1,115.7,7.7,170.8,25.8
			C306.3,743.2,180.1,760.2,64.1,807.7z M259.9,692.7c-36.4,0.1-72.7,2.4-108.8,7V173.5c38.9-8.7,78.7-13.1,118.6-13.2
			c74.8,0,178,17.2,249.6,98l0.6,498.2C478.3,729.3,397.1,692.7,259.9,692.7z M559.9,258.3c71.6-80,174.8-98,249.6-98
			c39.9,0.1,79.7,4.5,118.6,13.2v526.2c-35.9-4.6-72-7-108.2-7.2c-136.4,0-217.8,36.6-260,63.8V258.3z M1015.7,807.7
			c-116.2-47.6-242.7-64.6-367.4-49.4c55.3-18.2,113.4-26.9,171.6-25.8c42.1,0.2,84.2,3.5,125.8,9.8c10.9,1.7,21.1-5.9,22.8-16.8
			c0.2-1.1,0.2-2.2,0.2-3.2V220.9h47.8L1015.7,807.7z"/>
		<path class="st45" d="M430.7,758.3c-124.4-15-250.6,2-366.6,49.4V220.9h47.8v501.6c-0.1,11.1,8.7,20.1,19.8,20.2
			c1.1,0,2.2-0.1,3.2-0.2c41.4-6.3,83.2-9.7,125-10C317.9,731.5,375.6,740.2,430.7,758.3z"/>
		<path class="st45" d="M1016.5,220.9l-0.8,586.8c-116.2-47.6-242.7-64.6-367.4-49.4c55.3-18.2,113.4-26.9,171.6-25.8
			c42.1,0.2,84.2,3.5,125.8,9.8c10.9,1.7,21.1-5.9,22.8-16.8c0.2-1.1,0.2-2.2,0.2-3.2V220.9H1016.5z"/>
		<path class="st39" d="M928.1,173.5v526.2c-35.9-4.6-72-7-108.2-7.2c-136.4,0-217.8,36.6-260,63.8v-498c71.6-80,174.8-98,249.6-98
			C849.4,160.4,889.2,164.8,928.1,173.5z"/>
		<path class="st39" d="M519.9,756.5c-41.6-27.2-122.8-63.8-260-63.8c-36.4,0.1-72.7,2.4-108.8,7V173.5
			c38.9-8.7,78.7-13.1,118.6-13.2c74.8,0,178,17.2,249.6,98L519.9,756.5z"/>
		<g>
			<path class="st7" d="M507.5,554.7v-22.5c0-16,2.3-29.4,6.8-40.3c4.5-10.8,10.1-18.4,16.8-22.8c6.7-4.3,13.9-8.5,21.8-12.5
				c7.8-4,15.1-7.4,21.8-10.3c6.7-2.8,12.3-8,16.8-15.5s6.8-17.3,6.8-29.3c0-14.3-5.6-26.4-16.8-36.3c-11.2-9.8-24.9-14.8-41.3-14.8
				c-18.7,0-33.6,6.3-44.8,18.8c-11.2,12.5-15.4,27.8-12.8,45.8H418c-3-36,7.3-66.3,30.8-91c23.5-24.7,53.9-37,91.3-37
				c34.3,0,63.3,11,86.8,33s35.3,49.2,35.3,81.5c0,19-3.1,34.9-9.3,47.8c-6.2,12.8-13.6,22.1-22.3,27.8c-8.7,5.7-17.3,10.5-26,14.5
				c-8.7,4-16.1,8.8-22.3,14.5c-6.2,5.7-9.3,12.8-9.3,21.5v27H507.5z M571,659.7c-8,8-17.7,12-29,12c-11.3,0-21-4-29-12
				s-12-17.7-12-29c0-11.3,4-21.1,12-29.3c8-8.2,17.7-12.3,29-12.3c11.3,0,21,4.1,29,12.3c8,8.2,12,17.9,12,29.3
				C583,642,579,651.7,571,659.7z"/>
		</g>
		<g>
			<path d="M131.9,931.6c8.7,0,15.6,2.4,20.6,7.3l-10.4,18.2c-3.6-2.6-8-3.9-13.3-3.9c-5.3,0-10,2.1-14,6.2c-4,4.1-6,9.6-6,16.4
				v42.5H84v-85h22.3l1.4,13.1C114,936.5,122.1,931.6,131.9,931.6z"/>
			<path d="M195,931.6c11.7,0,21,2.7,28,8.2c7,5.4,10.5,13.6,10.5,24.5v54.1h-20.9l-1.2-8.3c-8.6,6.7-18,10-28.1,10
				c-8.2,0-14.8-2.4-19.9-7.1c-5.1-4.7-7.6-11-7.6-19c0-8.5,3.7-15.2,11-20.1c7.3-4.9,17.5-6.4,30.5-4.3l12.1,1.9v-7.3
				c0-4.6-1.6-8.1-4.8-10.4c-3.2-2.3-7.2-3.4-12-3.4c-8.3,0-15.2,3.4-20.9,10.2l-14.8-14.1c4.8-5.2,10.1-9,16-11.3
				C178.8,932.8,186.2,931.6,195,931.6z M181.7,992.6c0,2.8,1,5.1,2.9,6.7c1.9,1.6,4.4,2.5,7.5,2.5c5.8,0,11.6-2.5,17.3-7.6v-8.7
				l-6.8-1.4c-7.5-1.5-12.8-1.3-16.1,0.5C183.3,986.4,181.7,989.1,181.7,992.6z"/>
			<path d="M302.9,931.6c10,0,18,3,24.1,9c6.1,6,9.2,14,9.2,24v53.7h-24.8v-50.7c0-4.3-1.5-7.8-4.4-10.5c-2.9-2.7-6.7-4-11.4-4
				c-4.9,0-9,1.5-12.3,4.6c-3.3,3.1-5,6.8-5,11.2v49.3h-24.8v-85h22.3l1.4,9.9C284.1,935.4,292.7,931.6,302.9,931.6z"/>
			<path d="M413.9,890.8h24.5v127.5l-21.9,0.2l-1.4-8.8c-6.6,6.9-14.7,10.4-24.3,10.4c-11.6,0-21-4.2-28.4-12.7
				c-7.4-8.4-11.1-19-11.1-31.5s3.7-23.1,11.1-31.5c7.4-8.4,16.8-12.7,28.4-12.7c9.1,0,16.8,3.1,23.1,9.2V890.8z M395.8,998.2
				c4.1,0,7.7-1.2,11-3.7c3.2-2.4,5.6-5.7,7.2-9.8v-18c-1.6-4.1-4-7.4-7.3-9.9c-3.3-2.5-6.9-3.7-10.9-3.7c-5.9,0-10.7,2.2-14.4,6.5
				c-3.7,4.3-5.5,9.7-5.5,16.2s1.8,11.8,5.5,16.1C385.1,996.1,389.9,998.2,395.8,998.2z"/>
			<path d="M498.3,1020c-12.8,0-23.4-4.3-31.8-12.8c-8.4-8.5-12.6-19-12.6-31.5c0-12.5,4.2-23,12.6-31.5c8.4-8.5,19-12.8,31.8-12.8
				c12.7,0,23.3,4.3,31.7,12.8c8.4,8.5,12.7,19,12.7,31.5c0,12.5-4.2,23-12.7,31.5C521.5,1015.7,511,1020,498.3,1020z M498.3,998.2
				c5.8,0,10.5-2.2,14.3-6.5c3.7-4.3,5.6-9.6,5.6-16c0-6.3-1.9-11.7-5.6-16.1c-3.7-4.4-8.5-6.5-14.3-6.5c-5.9,0-10.7,2.2-14.4,6.5
				c-3.7,4.3-5.5,9.7-5.5,16.2s1.8,11.8,5.5,16.1C487.6,996.1,492.4,998.2,498.3,998.2z"/>
			<path d="M669.3,890.8h27.4v127.5h-25.5v-91.5l-44,67l-43.5-67v91.5h-25.7V890.8h27.7l41.6,62L669.3,890.8z"/>
			<path d="M794.9,975.6c0,2.4-0.2,4.8-0.5,7.3h-57.6c1.5,12,7.7,18,18.7,18c4.2,0,7.8-0.9,10.8-2.6c3-1.8,6-4.8,8.9-9.1l17.5,8.7
				c-3.2,6.9-8,12.3-14.4,16.2s-13.9,5.9-22.3,5.9c-14.3,0-25.2-4.1-32.6-12.2c-7.5-8.1-11.2-18.8-11.2-32
				c0-12.9,3.9-23.5,11.6-31.9c7.7-8.3,18.2-12.5,31.5-12.5c12.2,0,21.9,4,29.1,12C791.3,951.4,794.9,962.1,794.9,975.6z
				 M754.8,950.8c-9.4,0-15.2,5.2-17.5,15.5h34.2C769.6,956,764.1,950.8,754.8,950.8z"/>
			<path d="M859.7,931.6c10,0,18,3,24.1,9c6.1,6,9.2,14,9.2,24v53.7h-24.8v-50.7c0-4.3-1.5-7.8-4.4-10.5c-2.9-2.7-6.7-4-11.4-4
				c-4.9,0-9,1.5-12.3,4.6c-3.3,3.1-5,6.8-5,11.2v49.3h-24.8v-85h22.3l1.4,9.9C840.9,935.4,849.5,931.6,859.7,931.6z"/>
			<path d="M971.4,933.3H996v85h-22.1l-1.4-10c-6.9,7.8-15.5,11.7-25.7,11.7c-9.4,0-17.4-3.3-23.9-10c-6.5-6.7-9.8-14.8-9.8-24.5
				v-52.2h24.8v49.1c0,4.4,1.5,8.2,4.6,11.2c3.1,3.1,6.9,4.6,11.4,4.6c4.8,0,8.8-1.5,12.2-4.6c3.4-3.1,5.1-6.8,5.1-11.2V933.3z"/>
		</g>
	</g>
</g>
</svg>
