<?xml version="1.0" encoding="utf-8"?>
<!-- Generator: Adobe Illustrator 19.2.0, SVG Export Plug-In . SVG Version: 6.00 Build 0)  -->
<svg version="1.1" xmlns="http://www.w3.org/2000/svg" xmlns:xlink="http://www.w3.org/1999/xlink" x="0px" y="0px"
	 viewBox="0 0 1080 1080" style="enable-background:new 0 0 1080 1080;" xml:space="preserve">
<style type="text/css">
	.st0{fill:#CCB59B;stroke:#060706;stroke-width:18;stroke-miterlimit:10;}
	.st1{fill:#94BC60;stroke:#080707;stroke-width:18;stroke-miterlimit:10;}
	.st2{fill:#65933F;stroke:#080707;stroke-width:18;stroke-miterlimit:10;}
	.st3{fill:#DBC6A9;stroke:#060706;stroke-width:18;stroke-miterlimit:10;}
	.st4{fill:#010101;}
	.st5{fill:#E0E0E0;stroke:#212121;stroke-width:11.34;stroke-miterlimit:10;}
	.st6{fill:#B84E4F;}
	.st7{fill:#FFFFFF;stroke:#000000;stroke-width:16;stroke-miterlimit:10;}
	.st8{fill:#BFBEBE;}
	.st9{fill:#FCF4C7;}
	.st10{fill:#FFFFFF;}
	.st11{fill:#FFFFFF;stroke:#000000;stroke-miterlimit:10;}
	.st12{fill:#D1BC9D;stroke:#060706;stroke-width:23.76;stroke-miterlimit:10;}
	.st13{fill:#9DCD67;stroke:#080707;stroke-width:23.76;stroke-miterlimit:10;}
	.st14{fill:#6CA041;stroke:#080707;stroke-width:23.76;stroke-miterlimit:10;}
	.st15{fill:#FFFFFF;stroke:#000000;stroke-width:0.9669;stroke-miterlimit:10;}
	.st16{fill:#ED1C24;stroke:#000000;stroke-width:0.9669;stroke-miterlimit:10;}
	.st17{fill:#222161;stroke:#000000;stroke-width:0.9669;stroke-miterlimit:10;}
	.st18{fill:#FFCA06;stroke:#000000;stroke-width:0.9669;stroke-miterlimit:10;}
	.st19{fill:#FFFFFF;stroke:#000000;stroke-width:0.7138;stroke-miterlimit:10;}
	.st20{fill:#ED1C24;stroke:#000000;stroke-width:0.7138;stroke-miterlimit:10;}
	.st21{fill:#222161;stroke:#000000;stroke-width:0.7138;stroke-miterlimit:10;}
	.st22{fill:#FFCA06;stroke:#000000;stroke-width:0.7138;stroke-miterlimit:10;}
	.st23{fill:#FFFFFF;stroke:#000000;stroke-width:0.812;stroke-miterlimit:10;}
	.st24{fill:#ED1C24;stroke:#000000;stroke-width:0.812;stroke-miterlimit:10;}
	.st25{fill:#222161;stroke:#000000;stroke-width:0.812;stroke-miterlimit:10;}
	.st26{fill:#FFCA06;stroke:#000000;stroke-width:0.812;stroke-miterlimit:10;}
	.st27{fill:#CCB59B;stroke:#060706;stroke-width:11.34;stroke-miterlimit:10;}
	.st28{fill:#94BC60;stroke:#080707;stroke-width:11.34;stroke-miterlimit:10;}
	.st29{fill:#65933F;stroke:#080707;stroke-width:11.34;stroke-miterlimit:10;}
	.st30{fill:#DBC6A9;stroke:#060706;stroke-width:11.34;stroke-miterlimit:10;}
	.st31{fill:#FFFFFF;stroke:#000000;stroke-width:0.5116;stroke-miterlimit:10;}
	.st32{fill:#ED1C24;stroke:#000000;stroke-width:0.5116;stroke-miterlimit:10;}
	.st33{fill:#222161;stroke:#000000;stroke-width:0.5116;stroke-miterlimit:10;}
	.st34{fill:#FFCA06;stroke:#000000;stroke-width:0.5116;stroke-miterlimit:10;}
	.st35{fill:#F9F3D2;}
	.st36{fill:#FDF5A2;stroke:#212121;stroke-width:6.3;stroke-miterlimit:10;}
	.st37{fill:#FACE54;}
	.st38{fill:#F8E883;}
	.st39{fill:#F7EFBA;stroke:#212121;stroke-width:6.3;stroke-miterlimit:10;}
	.st40{fill:#F8981E;}
	.st41{fill:#FEDA46;}
	.st42{fill:#F0542D;}
	.st43{fill:#AB2823;}
	.st44{fill:#231F20;}
	.st45{fill:#B7AD7D;stroke:#212121;stroke-width:6.3;stroke-miterlimit:10;}
</style>
<g id="Layer_5">
</g>
<g id="Layer_4">
</g>
<g id="Layer_3">
</g>
<g id="Layer_2">
</g>
<g id="Layer_1">
	<g>
		<path class="st4" d="M645.2,558c1.5-2.4,3-4.8,4.5-7.3c67.3-111.5,101.2-209,100.7-289.8C749.7,144.7,655,51.1,538.9,51.7
			c-115.3,0.6-208.6,93.9-209.2,209.2c-0.5,80.9,33.4,178.4,100.7,289.8c1.5,2.5,3,4.9,4.5,7.3c-141.7,17.5-235.7,68.2-235.7,128.3
			c0,75.5,149.7,134.6,340.8,134.6s340.9-59.1,340.9-134.6C880.8,626.2,786.9,575.5,645.2,558z M352.3,260.9
			c-0.6-103.7,83-188.2,186.6-188.8c103.7-0.6,188.2,83,188.8,186.6c0,0.7,0,1.5,0,2.2c1,161.1-149.6,359.8-187.7,407.4
			C501.9,620.7,351.3,422.1,352.3,260.9z M540,798.3c-190.3,0-318.2-57.9-318.2-112c0-48,94.8-92.6,226.4-107
			c25.5,39.7,53.2,77.9,83.2,114.4c4,4.8,11.2,5.4,16,1.3c0.5-0.4,0.9-0.8,1.3-1.3c29.9-36.5,57.7-74.7,83.2-114.4
			c131.5,14.5,226.4,59.1,226.4,107C858.2,740.4,730.3,798.3,540,798.3z"/>
		<path class="st5" d="M631.8,579.3c-25.4,39.7-53.2,77.9-83.2,114.4c-0.4,0.5-0.8,0.9-1.3,1.3c-4.8,4-11.9,3.5-16-1.3
			c-29.9-36.5-57.7-74.7-83.2-114.4c-131.6,14.5-226.4,59.1-226.4,107c0,54.1,127.8,112,318.2,112c190.3,0,318.2-57.9,318.2-112
			C858.2,638.3,763.3,593.7,631.8,579.3z M445.9,755.2c-0.5,0-1,0-1.5-0.1c-53.4-6.8-97-19.3-122.7-35.1c-0.1-0.1-0.2-0.1-0.3-0.2
			c-5.3-3.4-6.8-10.4-3.5-15.7c3.4-5.3,10.4-6.8,15.7-3.5c23,14.1,63.4,25.5,113.7,31.9c5.6,0.7,9.8,5.5,9.9,11.2
			C457.2,750,452.1,755.1,445.9,755.2z M559.6,760.7c-6.4,0.2-13,0.2-19.6,0.2c-10,0-20.1-0.2-30.1-0.5c-6.3-0.2-11.2-5.5-10.9-11.8
			c0.2-6.3,5.5-11.2,11.8-10.9c16.1,0.6,32.5,0.7,48.3,0.3h0.3c6.2-0.1,11.3,4.9,11.3,11.1C570.8,755.3,565.8,760.5,559.6,760.7z"/>
		<path class="st6" d="M538.9,72.2c-103.6,0.6-187.2,85.1-186.6,188.8c-1,161.1,149.6,359.8,187.7,407.5
			c38.1-47.6,188.7-246.3,187.7-407.4c0-0.7,0-1.5,0-2.2C727.1,155.1,642.6,71.6,538.9,72.2z M540,356.7
			c-52.9,0-95.8-42.9-95.8-95.8c0-52.9,42.9-95.8,95.8-95.8c52.9,0,95.8,42.9,95.8,95.8C635.7,313.8,592.9,356.6,540,356.7z"/>
		<path class="st4" d="M457.1,743.8c0,6.3-5,11.4-11.3,11.4c-0.5,0-1,0-1.5-0.1c-53.4-6.8-97-19.3-122.7-35.1
			c-0.1-0.1-0.2-0.1-0.3-0.2c-5.3-3.4-6.8-10.4-3.5-15.7c3.4-5.3,10.4-6.8,15.7-3.5c23,14.1,63.4,25.5,113.7,31.9
			C452.9,733.3,457.1,738.1,457.1,743.8z"/>
		<path class="st4" d="M570.7,749.1c0.1,6.3-4.8,11.5-11.1,11.6c-6.4,0.2-13,0.2-19.6,0.2c-10,0-20.1-0.2-30.1-0.5
			c-6.3-0.2-11.2-5.5-10.9-11.8c0.2-6.3,5.5-11.2,11.8-10.9c16.1,0.6,32.5,0.7,48.3,0.3h0.3C565.5,737.9,570.6,742.9,570.7,749.1z"
			/>
		<path class="st4" d="M540,165.2c-52.9,0-95.8,42.9-95.8,95.8c0,52.9,42.9,95.8,95.8,95.8c52.9-0.1,95.7-42.9,95.8-95.8
			C635.7,208,592.9,165.2,540,165.2z M540,334c-40.3,0-73.1-32.7-73.1-73.1c0-40.4,32.7-73.1,73.1-73.1c40.4,0,73.1,32.7,73.1,73.1
			C613.1,301.3,580.3,334,540,334z"/>
		<path class="st7" d="M613.1,260.9c0,40.4-32.7,73.1-73.1,73.1c-40.3,0-73.1-32.7-73.1-73.1c0-40.4,32.7-73.1,73.1-73.1
			C580.4,187.9,613.1,220.6,613.1,260.9z"/>
		<g>
			<path class="st7" d="M507.5,554.7v-22.5c0-16,2.3-29.4,6.8-40.3c4.5-10.8,10.1-18.4,16.8-22.8c6.7-4.3,13.9-8.5,21.8-12.5
				c7.8-4,15.1-7.4,21.8-10.3c6.7-2.8,12.3-8,16.8-15.5s6.8-17.3,6.8-29.3c0-14.3-5.6-26.4-16.8-36.3c-11.2-9.8-24.9-14.8-41.3-14.8
				c-18.7,0-33.6,6.3-44.8,18.8c-11.2,12.5-15.4,27.8-12.8,45.8H418c-3-36,7.3-66.3,30.8-91c23.5-24.7,53.9-37,91.3-37
				c34.3,0,63.3,11,86.8,33s35.3,49.2,35.3,81.5c0,19-3.1,34.9-9.3,47.8c-6.2,12.8-13.6,22.1-22.3,27.8c-8.7,5.7-17.3,10.5-26,14.5
				c-8.7,4-16.1,8.8-22.3,14.5c-6.2,5.7-9.3,12.8-9.3,21.5v27H507.5z M571,659.7c-8,8-17.7,12-29,12c-11.3,0-21-4-29-12
				s-12-17.7-12-29c0-11.3,4-21.1,12-29.3c8-8.2,17.7-12.3,29-12.3c11.3,0,21,4.1,29,12.3c8,8.2,12,17.9,12,29.3
				C583,642,579,651.7,571,659.7z"/>
		</g>
		<g>
			<path d="M135.2,931.6c8.7,0,15.6,2.4,20.6,7.3l-10.4,18.2c-3.6-2.6-8-3.9-13.3-3.9c-5.3,0-10,2.1-14,6.2c-4,4.1-6,9.6-6,16.4
				v42.5H87.2v-85h22.3l1.4,13.1C117.2,936.5,125.3,931.6,135.2,931.6z"/>
			<path d="M198.2,931.6c11.7,0,21,2.7,28,8.2c7,5.4,10.5,13.6,10.5,24.5v54.1h-20.9l-1.2-8.3c-8.6,6.7-18,10-28.1,10
				c-8.2,0-14.8-2.4-19.9-7.1c-5.1-4.7-7.7-11-7.7-19c0-8.5,3.7-15.2,11-20.1c7.3-4.9,17.5-6.4,30.5-4.3l12.1,1.9v-7.3
				c0-4.6-1.6-8.1-4.8-10.4c-3.2-2.3-7.2-3.4-12-3.4c-8.3,0-15.2,3.4-20.9,10.2l-14.8-14.1c4.8-5.2,10.1-9,16-11.3
				C182,932.8,189.4,931.6,198.2,931.6z M185,992.6c0,2.8,1,5.1,2.9,6.7c1.9,1.6,4.4,2.5,7.5,2.5c5.8,0,11.6-2.5,17.3-7.6v-8.7
				l-6.8-1.4c-7.5-1.5-12.8-1.3-16.1,0.5C186.6,986.4,185,989.1,185,992.6z"/>
			<path d="M306.2,931.6c10,0,18,3,24.1,9c6.1,6,9.2,14,9.2,24v53.7h-24.8v-50.7c0-4.3-1.5-7.8-4.4-10.5c-2.9-2.7-6.7-4-11.4-4
				c-4.9,0-9,1.5-12.3,4.6c-3.3,3.1-5,6.8-5,11.2v49.3h-24.8v-85H279l1.4,9.9C287.4,935.4,296,931.6,306.2,931.6z"/>
			<path d="M417.2,890.8h24.5v127.5l-21.9,0.2l-1.4-8.8c-6.6,6.9-14.7,10.4-24.3,10.4c-11.6,0-21-4.2-28.4-12.7
				c-7.4-8.4-11.1-19-11.1-31.5s3.7-23.1,11.1-31.5c7.4-8.4,16.8-12.7,28.4-12.7c9.1,0,16.8,3.1,23.1,9.2V890.8z M399,998.2
				c4.1,0,7.7-1.2,11-3.7c3.2-2.4,5.6-5.7,7.2-9.8v-18c-1.6-4.1-4-7.4-7.3-9.9c-3.3-2.5-6.9-3.7-10.9-3.7c-5.9,0-10.7,2.2-14.4,6.5
				c-3.7,4.3-5.5,9.7-5.5,16.2s1.8,11.8,5.5,16.1C388.3,996.1,393.1,998.2,399,998.2z"/>
			<path d="M501.5,1020c-12.8,0-23.4-4.3-31.8-12.8c-8.4-8.5-12.6-19-12.6-31.5c0-12.5,4.2-23,12.6-31.5c8.4-8.5,19-12.8,31.8-12.8
				c12.7,0,23.3,4.3,31.7,12.8c8.4,8.5,12.7,19,12.7,31.5c0,12.5-4.2,23-12.7,31.5C524.8,1015.7,514.2,1020,501.5,1020z
				 M501.5,998.2c5.8,0,10.5-2.2,14.3-6.5c3.7-4.3,5.6-9.6,5.6-16c0-6.3-1.9-11.7-5.6-16.1c-3.7-4.4-8.5-6.5-14.3-6.5
				c-5.9,0-10.7,2.2-14.4,6.5c-3.7,4.3-5.5,9.7-5.5,16.2s1.8,11.8,5.5,16.1C490.8,996.1,495.6,998.2,501.5,998.2z"/>
			<path d="M672.5,890.8h27.4v127.5h-25.5v-91.5l-44,67l-43.5-67v91.5h-25.7V890.8h27.7l41.6,62L672.5,890.8z"/>
			<path d="M756.8,931.6c11.7,0,21,2.7,28,8.2c7,5.4,10.5,13.6,10.5,24.5v54.1h-20.9l-1.2-8.3c-8.6,6.7-18,10-28,10
				c-8.2,0-14.8-2.4-19.9-7.1c-5.1-4.7-7.6-11-7.6-19c0-8.5,3.7-15.2,11-20.1c7.3-4.9,17.5-6.4,30.5-4.3l12.1,1.9v-7.3
				c0-4.6-1.6-8.1-4.8-10.4c-3.2-2.3-7.2-3.4-12-3.4c-8.3,0-15.2,3.4-20.9,10.2l-14.8-14.1c4.8-5.2,10.1-9,16-11.3
				C740.6,932.8,748,931.6,756.8,931.6z M743.6,992.6c0,2.8,1,5.1,2.9,6.7c1.9,1.6,4.4,2.5,7.5,2.5c5.8,0,11.6-2.5,17.3-7.6v-8.7
				l-6.8-1.4c-7.5-1.5-12.8-1.3-16.1,0.5C745.2,986.4,743.6,989.1,743.6,992.6z"/>
			<path d="M864.8,931.6c10,0,18,3,24.1,9c6.1,6,9.2,14,9.2,24v53.7h-24.8v-50.7c0-4.3-1.5-7.8-4.4-10.5c-2.9-2.7-6.7-4-11.4-4
				c-4.9,0-9,1.5-12.3,4.6c-3.3,3.1-5,6.8-5,11.2v49.3h-24.8v-85h22.3l1.4,9.9C846,935.4,854.6,931.6,864.8,931.6z"/>
			<path d="M954.7,931.6c11.7,0,21,2.7,28,8.2c7,5.4,10.5,13.6,10.5,24.5v54.1h-20.9l-1.2-8.3c-8.6,6.7-18,10-28,10
				c-8.2,0-14.8-2.4-19.9-7.1c-5.1-4.7-7.6-11-7.6-19c0-8.5,3.7-15.2,11-20.1c7.3-4.9,17.5-6.4,30.5-4.3l12.1,1.9v-7.3
				c0-4.6-1.6-8.1-4.8-10.4c-3.2-2.3-7.2-3.4-12-3.4c-8.3,0-15.2,3.4-20.9,10.2l-14.8-14.1c4.8-5.2,10.1-9,16-11.3
				C938.5,932.8,945.9,931.6,954.7,931.6z M941.5,992.6c0,2.8,1,5.1,2.9,6.7c1.9,1.6,4.4,2.5,7.5,2.5c5.8,0,11.6-2.5,17.3-7.6v-8.7
				l-6.8-1.4c-7.5-1.5-12.8-1.3-16.1,0.5C943.1,986.4,941.5,989.1,941.5,992.6z"/>
		</g>
	</g>
</g>
</svg>
