<?xml version="1.0" encoding="utf-8"?>
<!-- Generator: Adobe Illustrator 19.2.0, SVG Export Plug-In . SVG Version: 6.00 Build 0)  -->
<svg version="1.1" xmlns="http://www.w3.org/2000/svg" xmlns:xlink="http://www.w3.org/1999/xlink" x="0px" y="0px"
	 viewBox="0 0 1080 1080" style="enable-background:new 0 0 1080 1080;" xml:space="preserve">
<style type="text/css">
	.st0{fill:#CCB59B;stroke:#060706;stroke-width:18;stroke-miterlimit:10;}
	.st1{fill:#94BC60;stroke:#080707;stroke-width:18;stroke-miterlimit:10;}
	.st2{fill:#65933F;stroke:#080707;stroke-width:18;stroke-miterlimit:10;}
	.st3{fill:#DBC6A9;stroke:#060706;stroke-width:18;stroke-miterlimit:10;}
	.st4{fill:#010101;}
	.st5{fill:#E0E0E0;stroke:#212121;stroke-width:11.34;stroke-miterlimit:10;}
	.st6{fill:#B84E4F;}
	.st7{fill:#FFFFFF;stroke:#000000;stroke-width:16;stroke-miterlimit:10;}
	.st8{fill:#BFBEBE;}
	.st9{fill:#FCF4C7;}
	.st10{fill:#FFFFFF;}
	.st11{fill:#FFFFFF;stroke:#000000;stroke-miterlimit:10;}
	.st12{fill:#D1BC9D;stroke:#060706;stroke-width:23.76;stroke-miterlimit:10;}
	.st13{fill:#9DCD67;stroke:#080707;stroke-width:23.76;stroke-miterlimit:10;}
	.st14{fill:#6CA041;stroke:#080707;stroke-width:23.76;stroke-miterlimit:10;}
	.st15{fill:#FFFFFF;stroke:#000000;stroke-width:0.9669;stroke-miterlimit:10;}
	.st16{fill:#ED1C24;stroke:#000000;stroke-width:0.9669;stroke-miterlimit:10;}
	.st17{fill:#222161;stroke:#000000;stroke-width:0.9669;stroke-miterlimit:10;}
	.st18{fill:#FFCA06;stroke:#000000;stroke-width:0.9669;stroke-miterlimit:10;}
	.st19{fill:#FFFFFF;stroke:#000000;stroke-width:0.7138;stroke-miterlimit:10;}
	.st20{fill:#ED1C24;stroke:#000000;stroke-width:0.7138;stroke-miterlimit:10;}
	.st21{fill:#222161;stroke:#000000;stroke-width:0.7138;stroke-miterlimit:10;}
	.st22{fill:#FFCA06;stroke:#000000;stroke-width:0.7138;stroke-miterlimit:10;}
	.st23{fill:#FFFFFF;stroke:#000000;stroke-width:0.812;stroke-miterlimit:10;}
	.st24{fill:#ED1C24;stroke:#000000;stroke-width:0.812;stroke-miterlimit:10;}
	.st25{fill:#222161;stroke:#000000;stroke-width:0.812;stroke-miterlimit:10;}
	.st26{fill:#FFCA06;stroke:#000000;stroke-width:0.812;stroke-miterlimit:10;}
	.st27{fill:#CCB59B;stroke:#060706;stroke-width:11.34;stroke-miterlimit:10;}
	.st28{fill:#94BC60;stroke:#080707;stroke-width:11.34;stroke-miterlimit:10;}
	.st29{fill:#65933F;stroke:#080707;stroke-width:11.34;stroke-miterlimit:10;}
	.st30{fill:#DBC6A9;stroke:#060706;stroke-width:11.34;stroke-miterlimit:10;}
	.st31{fill:#FFFFFF;stroke:#000000;stroke-width:0.5116;stroke-miterlimit:10;}
	.st32{fill:#ED1C24;stroke:#000000;stroke-width:0.5116;stroke-miterlimit:10;}
	.st33{fill:#222161;stroke:#000000;stroke-width:0.5116;stroke-miterlimit:10;}
	.st34{fill:#FFCA06;stroke:#000000;stroke-width:0.5116;stroke-miterlimit:10;}
	.st35{fill:#F9F3D2;}
	.st36{fill:#FDF5A2;stroke:#212121;stroke-width:6.3;stroke-miterlimit:10;}
	.st37{fill:#FACE54;}
	.st38{fill:#F8E883;}
	.st39{fill:#F7EFBA;stroke:#212121;stroke-width:6.3;stroke-miterlimit:10;}
	.st40{fill:#F8981E;}
	.st41{fill:#FEDA46;}
	.st42{fill:#F0542D;}
	.st43{fill:#AB2823;}
	.st44{fill:#231F20;}
	.st45{fill:#B7AD7D;stroke:#212121;stroke-width:6.3;stroke-miterlimit:10;}
</style>
<g id="Layer_5">
</g>
<g id="Layer_4">
</g>
<g id="Layer_3">
</g>
<g id="Layer_2">
</g>
<g id="Layer_1">
	<g>
		<g>
			<path class="st4" d="M186.6,761.9c-7.4,7.4-11.5,17.3-11.5,27.8c0,10.5,4.1,20.4,11.5,27.8c7.7,7.7,17.8,11.5,27.8,11.5
				c10.1,0,20.2-3.8,27.8-11.5c7.4-7.4,11.5-17.3,11.5-27.8c0-10.5-4.1-20.4-11.5-27.8C226.9,746.6,201.9,746.6,186.6,761.9z
				 M224.5,799.8c-5.6,5.6-14.6,5.6-20.1,0c-2.7-2.7-4.2-6.3-4.2-10.1c0-3.8,1.5-7.4,4.2-10.1c2.8-2.8,6.4-4.2,10.1-4.2
				s7.3,1.4,10.1,4.2c2.7,2.7,4.2,6.3,4.2,10.1C228.6,793.6,227.2,797.1,224.5,799.8z"/>
			<path class="st5" d="M220.3,679.4l-56.5,52.2c-26.1,23.2-33.3,60.9-17.7,92.1c7.5,14.9,19.6,27,34.5,34.5
				c31.2,15.6,68.9,8.3,92.1-17.7l52.2-56.5L220.3,679.4z M233.4,808.7c-10.5,10.5-27.4,10.5-37.9,0c-10.5-10.5-10.5-27.4,0-37.9
				c10.5-10.5,27.4-10.5,37.9,0C243.8,781.3,243.8,798.2,233.4,808.7z"/>
			<path class="st5" d="M935.3,222.4c-10.4-11.4-28-11.7-38.8-0.9l-94.8,94.8c-10.2,10.2-26.8,11.1-37.5,1.4
				c-11.4-10.4-11.7-28-0.9-38.8l94.8-94.8c10.2-10.2,11.1-26.8,1.4-37.5c-10.4-11.4-28-11.7-38.8-0.9l-94.8,94.8
				c-10.2,10.2-26.8,11.1-37.5,1.4c-11.4-10.4-11.7-28-0.9-38.8l94.8-94.8c10.2-10.2,11.1-26.8,1.4-37.5
				c-10.4-11.4-28-11.7-38.8-0.9L593.2,221.4c-34.6,34.6-46.3,83.3-35.2,127.5c2.4,9.5-0.8,19.5-8,26.1L257.1,645.4l101.7,101.7
				l270.4-292.9c6.6-7.2,16.6-10.4,26.1-8c44.2,11.1,92.9-0.6,127.5-35.2l151.1-151.1C944.1,249.7,945,233.1,935.3,222.4
				L935.3,222.4z"/>
			<g>
				<path class="st8" d="M935.3,222.4c-10.4-11.4-28-11.7-38.8-0.9l-0.3,0.3c0.2,0.2,0.4,0.4,0.6,0.6c9.7,10.7,8.8,27.3-1.4,37.5
					L744.3,411c-21.3,21.3-47.9,33.9-75.5,37.8c40.4,5.8,82.9-6.8,114-37.8l151.1-151.1C944.1,249.7,945,233.1,935.3,222.4z"/>
				<g>
					<path class="st8" d="M304.8,763.8l-70.6,76.5c-10.5,11.8-23.9,19.7-38.4,23.4c27.6,7.1,57.4-1.5,76.9-23.4l52.2-56.5
						L304.8,763.8z"/>
					<path class="st8" d="M616.8,446.2c-9.5-2.4-19.5,0.8-26.1,8L338.7,727l20,20l270.4-292.9c1.7-1.9,3.7-3.5,5.8-4.7
						C628.8,448.8,622.8,447.7,616.8,446.2L616.8,446.2z"/>
				</g>
			</g>
			<path class="st9" d="M219,680.6l104.6,104.6l36.4-39.4L258.4,644.2L219,680.6z"/>
			<path class="st10" d="M323.6,785.2l36.4-39.4l-20-20l-36.4,39.4L323.6,785.2z"/>
			<path class="st5" d="M916.3,731.5l-56.7-52.8L754.7,783.6l52.8,56.7c23.2,26.1,60.9,33.3,92.1,17.7c14.9-7.5,27-19.6,34.5-34.5
				C949.6,792.4,942.3,754.7,916.3,731.5z M884.6,808.7c-10.5,10.5-27.4,10.5-37.9,0c-10.5-10.5-10.5-27.4,0-37.9
				c10.5-10.5,27.4-10.5,37.9,0C895.1,781.2,895.1,798.2,884.6,808.7z"/>
			<path class="st5" d="M823.7,645.4L485.6,330.9c-7.2-6.7-10.3-16.7-7.9-26.2c11.2-44.2-0.5-93-35.2-127.6l-74.6-74.6
				c-52.3-52.3-137.4-53.8-190-1.9c-53.1,52.3-53.3,137.7-0.7,190.3l75.8,75.8c34.6,34.6,83.4,46.3,127.7,35.1
				c9.5-2.4,19.5,0.8,26.2,7.9l314.6,338.1L823.7,645.4z"/>
			<g>
				<path class="st8" d="M823.7,645.4L485.6,330.9c-7.2-6.7-10.3-16.7-7.9-26.2c11.2-44.2-0.5-93-35.2-127.6l-74.6-74.6
					C336.4,71,293.1,58,252.1,63.8c28.3,4,55.6,17,77.3,38.6l74.6,74.6c34.6,34.6,46.3,83.4,35.2,127.6c-2.4,9.5,0.8,19.5,7.9,26.2
					L805.1,664L823.7,645.4z"/>
				<path class="st8" d="M916.3,731.5l-56.7-52.8L841,697.3l36.7,34.2c26.1,23.2,33.3,60.9,17.7,92.1c-7.5,14.9-19.6,27-34.5,34.5
					c-4.9,2.5-10,4.3-15.2,5.7c17.6,4.5,36.6,2.9,53.7-5.7c14.9-7.5,27-19.6,34.5-34.5C949.6,792.4,942.3,754.7,916.3,731.5z"/>
			</g>
			<path class="st9" d="M861.3,680.3l-105,105l-36.5-39.3L822,643.8L861.3,680.3z"/>
			<path class="st10" d="M842.7,698.9l18.6-18.6L822,643.8l-18.6,18.6L842.7,698.9z"/>
			<path class="st4" d="M893.5,761.9c-15.4-15.4-40.3-15.4-55.7,0c-7.4,7.4-11.5,17.3-11.5,27.8c0,10.5,4.1,20.4,11.5,27.8
				c7.7,7.7,17.8,11.5,27.8,11.5c10.1,0,20.2-3.8,27.8-11.5c7.4-7.4,11.5-17.3,11.5-27.8C905,779.2,900.9,769.3,893.5,761.9z
				 M875.7,799.8c-5.6,5.6-14.6,5.6-20.1,0c-2.7-2.7-4.2-6.3-4.2-10.1c0-3.8,1.5-7.4,4.2-10.1c2.8-2.8,6.4-4.2,10.1-4.2
				c3.6,0,7.3,1.4,10.1,4.2c2.7,2.7,4.2,6.3,4.2,10.1C879.9,793.5,878.4,797.1,875.7,799.8L875.7,799.8z"/>
			<path class="st4" d="M924.7,722.2L642.4,459.6c3-1.6,6.5-2.1,9.8-1.2c49.8,12.5,103.2-2.3,139.4-38.5l151.1-151.1
				c15.2-15.2,16-39.3,1.8-54.9c-7.3-8.1-17.4-12.6-28.2-12.9c-10.7-0.3-21.2,3.9-28.8,11.5l-94.8,94.8c-5.6,5.6-14.6,6.1-20.2,1
				c-2.9-2.7-4.6-6.3-4.7-10.2c-0.1-3.9,1.4-7.6,4.2-10.4l94.8-94.8c15.2-15.2,16-39.3,1.8-54.9c-7.3-8.1-17.4-12.6-28.2-12.9
				c-10.7-0.2-21.2,3.9-28.8,11.5L717,231.5c-5.6,5.6-14.6,6.1-20.2,1c-2.9-2.7-4.6-6.3-4.7-10.2c-0.1-3.9,1.4-7.6,4.2-10.4
				l94.8-94.8c15.2-15.2,16-39.3,1.8-54.9c-7.3-8.1-17.4-12.6-28.2-12.9c-10.7-0.2-21.2,3.9-28.8,11.5L584.3,212.6
				c-36.2,36.2-51,89.7-38.5,139.4c1.2,4.9-0.4,10.2-4.3,13.8l-47.4-44.1c-3.9-3.6-5.6-9-4.3-13.9c12.6-49.8-2.2-103.3-38.5-139.6
				l-74.6-74.6c-57.4-57.4-150.6-58.3-207.7-2c-28.1,27.6-43.6,64.5-43.7,103.9c-0.1,39.4,15.1,76.4,42.9,104.2l75.8,75.8
				c36.3,36.3,89.8,51,139.6,38.4c4.9-1.2,10.3,0.4,13.9,4.3l40.3,43.3l-100.3,92.6c-5.1,4.7-5.4,12.7-0.7,17.8c2.5,2.7,5.9,4,9.2,4
				c3,0,6.1-1.1,8.5-3.3l100.4-92.7l66.9,72L359.6,727.6l-83.1-83.1l41.2-38c5.1-4.7,5.4-12.7,0.7-17.8c-4.7-5.1-12.7-5.4-17.8-0.7
				L155.3,722.3c-30.2,26.9-38.6,70.9-20.5,107c8.6,17.2,22.9,31.5,40.1,40.1c12.7,6.4,26.4,9.4,40,9.4c25,0,49.6-10.4,67-30
				L539,570.3l90.3,97c4.7,5.1,12.7,5.4,17.8,0.6c5.1-4.7,5.4-12.7,0.6-17.8L415.9,401.1c-9.9-10.6-24.6-15.1-38.5-11.6
				c-41.3,10.4-85.6-1.8-115.7-31.8L186,281.9c-23.1-23.1-35.7-53.7-35.6-86.3c0.1-32.6,13-63.2,36.2-86.1
				C234,62.9,311.3,63.7,359,111.4l74.6,74.6c30.1,30.1,42.3,74.4,31.9,115.7c-3.5,13.8,0.9,28.6,11.6,38.5l326.9,304.1L720,728
				L682,687.1c-4.7-5.1-12.7-5.4-17.8-0.6c-5.1,4.7-5.4,12.7-0.6,17.8l134.6,144.6c17.4,19.5,42,30,67,30c13.6,0,27.3-3.1,40-9.4
				c17.2-8.6,31.5-22.9,40.1-40.1C963.3,793.1,954.9,749.1,924.7,722.2L924.7,722.2z M342.5,746.1l-19.3,20.9L237.1,681l20.9-19.3
				L342.5,746.1z M263.4,831.9c-0.1,0.1-0.1,0.1-0.2,0.2c-19.3,21.8-51,27.9-77.1,14.8c-12.4-6.2-22.7-16.4-28.9-28.9
				c-13-26-6.9-57.7,14.8-77.1c0.1-0.1,0.1-0.1,0.2-0.2l46.3-42.8l87.5,87.5L263.4,831.9z M570.2,345.9
				c-10.5-41.9,1.4-85.1,31.9-115.5L753.7,78.7c2.8-2.8,6.5-4.2,10.4-4.2c3.9,0.1,7.6,1.8,10.2,4.7c5,5.5,4.6,14.6-1,20.2
				l-94.8,94.8c-7.6,7.6-11.8,18.1-11.5,28.8c0.3,10.9,4.8,20.9,12.9,28.2c15.6,14.2,39.7,13.4,54.9-1.8l94.8-94.8
				c2.8-2.8,6.5-4.3,10.4-4.2c3.9,0.1,7.6,1.8,10.2,4.7c5,5.5,4.6,14.6-1,20.2L754.4,270c-7.6,7.6-11.8,18.1-11.5,28.8
				c0.3,10.9,4.8,20.9,12.9,28.2c15.6,14.2,39.7,13.4,54.9-1.8l94.8-94.8c2.8-2.8,6.5-4.3,10.4-4.2c3.9,0.1,7.6,1.8,10.2,4.7
				c5,5.5,4.6,14.6-1,20.2L773.9,402.1c-30.5,30.5-73.7,42.4-115.6,31.9c-12.2-3.1-25.1,0.1-34.7,8.1l-63.7-59.2
				C569.6,373.1,573.5,359.1,570.2,345.9L570.2,345.9z M822.3,661.3l20.9,19.4l-86.6,86.6l-19.4-20.9L822.3,661.3z M922.8,818
				c-6.2,12.4-16.5,22.7-28.9,28.9c-26,13-57.7,6.9-77.1-14.8c-0.1-0.1-0.1-0.1-0.2-0.2l-42.9-46.1l87.9-87.9l46.1,42.9
				c0.1,0.1,0.1,0.1,0.2,0.2C929.7,760.3,935.8,791.9,922.8,818z"/>
			<path class="st4" d="M299.7,319.9c-4.9-4.9-12.9-4.9-17.8,0c-4.9,4.9-4.9,12.9,0,17.8c18.1,18.1,41.9,27.2,65.8,27.2
				s47.6-9.1,65.8-27.2c17.6-17.6,27.2-40.9,27.2-65.8s-9.7-48.2-27.2-65.8c-4.9-4.9-12.9-4.9-17.8,0c-4.9,4.9-4.9,12.9,0,17.8
				c12.8,12.8,19.9,29.9,19.9,48c0,18.1-7.1,35.2-19.9,48C369.3,346.3,326.2,346.3,299.7,319.9L299.7,319.9z"/>
		</g>
		<g>
			<path class="st7" d="M507.5,554.7v-22.5c0-16,2.3-29.4,6.8-40.3c4.5-10.8,10.1-18.4,16.8-22.8c6.7-4.3,13.9-8.5,21.8-12.5
				c7.8-4,15.1-7.4,21.8-10.3c6.7-2.8,12.3-8,16.8-15.5s6.8-17.3,6.8-29.3c0-14.3-5.6-26.4-16.8-36.3c-11.2-9.8-24.9-14.8-41.3-14.8
				c-18.7,0-33.6,6.3-44.8,18.8c-11.2,12.5-15.4,27.8-12.8,45.8H418c-3-36,7.3-66.3,30.8-91c23.5-24.7,53.9-37,91.3-37
				c34.3,0,63.3,11,86.8,33s35.3,49.2,35.3,81.5c0,19-3.1,34.9-9.3,47.8c-6.2,12.8-13.6,22.1-22.3,27.8c-8.7,5.7-17.3,10.5-26,14.5
				c-8.7,4-16.1,8.8-22.3,14.5c-6.2,5.7-9.3,12.8-9.3,21.5v27H507.5z M571,659.7c-8,8-17.7,12-29,12c-11.3,0-21-4-29-12
				s-12-17.7-12-29c0-11.3,4-21.1,12-29.3c8-8.2,17.7-12.3,29-12.3c11.3,0,21,4.1,29,12.3c8,8.2,12,17.9,12,29.3
				C583,642,579,651.7,571,659.7z"/>
		</g>
		<g>
			<path d="M87,931.6c8.7,0,15.6,2.4,20.6,7.3l-10.4,18.2c-3.6-2.6-8-3.9-13.3-3.9c-5.3,0-10,2.1-14,6.2c-4,4.1-6,9.6-6,16.4v42.5
				H39.1v-85h22.3l1.4,13.1C69.1,936.5,77.2,931.6,87,931.6z"/>
			<path d="M150.1,931.6c11.7,0,21,2.7,28,8.2c7,5.4,10.5,13.6,10.5,24.5v54.1h-20.9l-1.2-8.3c-8.6,6.7-18,10-28,10
				c-8.2,0-14.8-2.4-19.9-7.1c-5.1-4.7-7.7-11-7.7-19c0-8.5,3.7-15.2,11-20.1c7.3-4.9,17.5-6.4,30.5-4.3l12.1,1.9v-7.3
				c0-4.6-1.6-8.1-4.8-10.4c-3.2-2.3-7.2-3.4-12-3.4c-8.3,0-15.2,3.4-20.9,10.2L112,946.4c4.8-5.2,10.1-9,16-11.3
				C133.9,932.8,141.3,931.6,150.1,931.6z M136.9,992.6c0,2.8,1,5.1,2.9,6.7c1.9,1.6,4.4,2.5,7.5,2.5c5.8,0,11.6-2.5,17.3-7.6v-8.7
				l-6.8-1.4c-7.5-1.5-12.8-1.3-16.1,0.5C138.5,986.4,136.9,989.1,136.9,992.6z"/>
			<path d="M258.1,931.6c10,0,18,3,24.1,9c6.1,6,9.2,14,9.2,24v53.7h-24.8v-50.7c0-4.3-1.5-7.8-4.4-10.5c-2.9-2.7-6.7-4-11.4-4
				c-4.9,0-9,1.5-12.3,4.6c-3.3,3.1-5,6.8-5,11.2v49.3h-24.8v-85h22.3l1.4,9.9C239.2,935.4,247.9,931.6,258.1,931.6z"/>
			<path d="M369.1,890.8h24.5v127.5l-21.9,0.2l-1.4-8.8c-6.6,6.9-14.7,10.4-24.3,10.4c-11.6,0-21-4.2-28.4-12.7
				c-7.4-8.4-11.1-19-11.1-31.5s3.7-23.1,11.1-31.5c7.4-8.4,16.8-12.7,28.4-12.7c9.1,0,16.8,3.1,23.1,9.2V890.8z M350.9,998.2
				c4.1,0,7.7-1.2,11-3.7c3.2-2.4,5.6-5.7,7.2-9.8v-18c-1.6-4.1-4-7.4-7.3-9.9c-3.3-2.5-6.9-3.7-10.9-3.7c-5.9,0-10.7,2.2-14.4,6.5
				c-3.7,4.3-5.5,9.7-5.5,16.2c0,6.5,1.8,11.8,5.5,16.1C340.2,996.1,345,998.2,350.9,998.2z"/>
			<path d="M453.4,1020c-12.8,0-23.4-4.3-31.8-12.8c-8.4-8.5-12.6-19-12.6-31.5c0-12.5,4.2-22.9,12.6-31.4
				c8.4-8.5,19-12.8,31.8-12.8c12.7,0,23.3,4.3,31.7,12.8c8.4,8.5,12.7,19,12.7,31.4c0,12.5-4.2,23-12.7,31.5
				C476.6,1015.7,466.1,1020,453.4,1020z M453.4,998.2c5.8,0,10.5-2.2,14.3-6.5c3.7-4.3,5.6-9.6,5.6-16c0-6.3-1.9-11.7-5.6-16.1
				c-3.7-4.4-8.5-6.5-14.3-6.5c-5.9,0-10.7,2.2-14.4,6.5c-3.7,4.3-5.5,9.7-5.5,16.2c0,6.5,1.8,11.8,5.5,16.1
				C442.7,996.1,447.5,998.2,453.4,998.2z"/>
			<path d="M624.4,890.8h27.4v127.5h-25.5v-91.5l-44,67l-43.5-67v91.5h-25.7V890.8h27.7l41.7,62.1L624.4,890.8z"/>
			<path d="M708.7,931.6c11.7,0,21,2.7,28,8.2c7,5.4,10.5,13.6,10.5,24.5v54.1h-20.9l-1.2-8.3c-8.6,6.7-18,10-28.1,10
				c-8.2,0-14.8-2.4-19.9-7.1c-5.1-4.7-7.6-11-7.6-19c0-8.5,3.7-15.2,11-20.1c7.3-4.9,17.5-6.4,30.5-4.3l12.1,1.9v-7.3
				c0-4.6-1.6-8.1-4.8-10.4c-3.2-2.3-7.2-3.4-12-3.4c-8.3,0-15.2,3.4-20.9,10.2l-14.8-14.1c4.8-5.2,10.1-9,16-11.3
				C692.5,932.8,699.9,931.6,708.7,931.6z M695.5,992.6c0,2.8,1,5.1,2.9,6.7c1.9,1.6,4.4,2.5,7.5,2.5c5.8,0,11.6-2.5,17.3-7.6v-8.7
				l-6.8-1.4c-7.5-1.5-12.8-1.3-16.1,0.5C697.1,986.4,695.5,989.1,695.5,992.6z"/>
			<path d="M850.8,933.3l-37.9,36.6l36.6,32.5v30.8L792,980.4v37.9h-24.8V890.8H792v70.4l28.7-27.9H850.8z"/>
			<path d="M900,931.6c11.7,0,21,2.7,28,8.2c7,5.4,10.5,13.6,10.5,24.5v54.1h-20.9l-1.2-8.3c-8.6,6.7-18,10-28.1,10
				c-8.2,0-14.8-2.4-19.9-7.1c-5.1-4.7-7.6-11-7.6-19c0-8.5,3.7-15.2,11-20.1c7.3-4.9,17.5-6.4,30.5-4.3l12.1,1.9v-7.3
				c0-4.6-1.6-8.1-4.8-10.4c-3.2-2.3-7.2-3.4-12-3.4c-8.3,0-15.2,3.4-20.9,10.2l-14.8-14.1c4.8-5.2,10.1-9,16-11.3
				C883.8,932.8,891.1,931.6,900,931.6z M886.7,992.6c0,2.8,1,5.1,2.9,6.7c1.9,1.6,4.4,2.5,7.5,2.5c5.8,0,11.6-2.5,17.3-7.6v-8.7
				l-6.8-1.4c-7.5-1.5-12.8-1.3-16.1,0.5C888.3,986.4,886.7,989.1,886.7,992.6z"/>
			<path d="M1007.9,931.6c10,0,18,3,24.1,9c6.1,6,9.2,14,9.2,24v53.7h-24.8v-50.7c0-4.3-1.5-7.8-4.4-10.5c-2.9-2.7-6.7-4-11.4-4
				c-4.9,0-9,1.5-12.3,4.6c-3.3,3.1-5,6.8-5,11.2v49.3h-24.8v-85h22.3l1.4,9.9C989.1,935.4,997.7,931.6,1007.9,931.6z"/>
		</g>
	</g>
</g>
</svg>
