<?xml version="1.0" encoding="utf-8"?>
<!-- Generator: Adobe Illustrator 19.2.0, SVG Export Plug-In . SVG Version: 6.00 Build 0)  -->
<svg version="1.1" xmlns="http://www.w3.org/2000/svg" xmlns:xlink="http://www.w3.org/1999/xlink" x="0px" y="0px"
	 viewBox="0 0 1080 1920" style="enable-background:new 0 0 1080 1920;" xml:space="preserve">
<style type="text/css">
	.st0{fill:#CCB59B;stroke:#060706;stroke-width:18;stroke-miterlimit:10;}
	.st1{fill:#94BC60;stroke:#080707;stroke-width:18;stroke-miterlimit:10;}
	.st2{fill:#65933F;stroke:#080707;stroke-width:18;stroke-miterlimit:10;}
	.st3{fill:#DBC6A9;stroke:#060706;stroke-width:18;stroke-miterlimit:10;}
	.st4{fill:#D1BC9D;stroke:#060706;stroke-width:23.76;stroke-miterlimit:10;}
	.st5{fill:#9DCD67;stroke:#080707;stroke-width:23.76;stroke-miterlimit:10;}
	.st6{fill:#6CA041;stroke:#080707;stroke-width:23.76;stroke-miterlimit:10;}
	.st7{fill:#FFFFFF;stroke:#000000;stroke-width:0.9669;stroke-miterlimit:10;}
	.st8{fill:#ED1C24;stroke:#000000;stroke-width:0.9669;stroke-miterlimit:10;}
	.st9{fill:#222161;stroke:#000000;stroke-width:0.9669;stroke-miterlimit:10;}
	.st10{fill:#FFCA06;stroke:#000000;stroke-width:0.9669;stroke-miterlimit:10;}
	.st11{fill:#FFFFFF;stroke:#000000;stroke-width:0.7138;stroke-miterlimit:10;}
	.st12{fill:#ED1C24;stroke:#000000;stroke-width:0.7138;stroke-miterlimit:10;}
	.st13{fill:#222161;stroke:#000000;stroke-width:0.7138;stroke-miterlimit:10;}
	.st14{fill:#FFCA06;stroke:#000000;stroke-width:0.7138;stroke-miterlimit:10;}
	.st15{fill:#FFFFFF;stroke:#000000;stroke-width:0.812;stroke-miterlimit:10;}
	.st16{fill:#ED1C24;stroke:#000000;stroke-width:0.812;stroke-miterlimit:10;}
	.st17{fill:#222161;stroke:#000000;stroke-width:0.812;stroke-miterlimit:10;}
	.st18{fill:#FFCA06;stroke:#000000;stroke-width:0.812;stroke-miterlimit:10;}
	.st19{fill:#CCB59B;stroke:#060706;stroke-width:11.34;stroke-miterlimit:10;}
	.st20{fill:#94BC60;stroke:#080707;stroke-width:11.34;stroke-miterlimit:10;}
	.st21{fill:#65933F;stroke:#080707;stroke-width:11.34;stroke-miterlimit:10;}
	.st22{fill:#DBC6A9;stroke:#060706;stroke-width:11.34;stroke-miterlimit:10;}
	.st23{fill:#FFFFFF;stroke:#000000;stroke-width:0.5116;stroke-miterlimit:10;}
	.st24{fill:#ED1C24;stroke:#000000;stroke-width:0.5116;stroke-miterlimit:10;}
	.st25{fill:#222161;stroke:#000000;stroke-width:0.5116;stroke-miterlimit:10;}
	.st26{fill:#FFCA06;stroke:#000000;stroke-width:0.5116;stroke-miterlimit:10;}
</style>
<g id="Layer_5">
</g>
<g id="Layer_4">
</g>
<g id="Layer_3">
</g>
<g id="Layer_2">
</g>
<g id="Layer_1">
	<g>
		<path class="st19" d="M696.1,989l89-41.5c0.6-0.3,3.3-3,3.6-3.5l12.2-26.4c0.5-1,0.2-2.2-0.6-3l-118-108c-2.2-2-5.4,0.6-4,3.2
			c11.7,20.8,25.7,53.3,28,94.8c1.8,33-4.4,60.2-10.4,78.5C695.2,985.1,694.1,990,696.1,989z"/>
		<path class="st20" d="M517.9,684.8L517.9,684.8c5.7-2.2,12.1-1.3,16.9,2.4L670,792.4c1.1,0.9,2.1,1.9,3,3
			c11.8,15.1,36.6,51.6,40.2,104.1c1.8,26.2-2.2,48.6-7.1,65.6c-3.3,11.4-33.9,46.6-43,23.2c-21.2-54.9-79.8-81.8-128-115.7
			c-3.9-2.8-6.5-7.1-7.2-11.9l-20.9-157.7C506,695.2,510.5,687.7,517.9,684.8z"/>
		<path class="st21" d="M439.2,774.7l48.3-74.5c5.4-8.4,16-11.9,25.4-8.5l49.1,17.7c8,2.9,13.3,10.5,13.3,18.9v100.2l-125.7-63.3
			L439.2,774.7z"/>
		<path class="st22" d="M314.1,946.1l1.3,3.2c2.4,5.7,6.7,10.4,12.1,13.3l193.4,104.2c10.9,5.9,24,5.8,34.8-0.1l132.8-72.3
			c6.1-3.3,10.7-8.8,12.8-15.5l4.6-14.2c3.3-10,0.5-21-7.2-28.2c-34.5-32.6-72.3-73.1-125.5-107.1c-35.8-22.9-85.6-43.8-117.2-58.6
			c-11.6-5.5-17.8,2-25.5,12.3c-24.5,32.6-47,68.4-71.5,101.1c-1.4,1.9-3.1,3.6-5,5.1l-31.7,24.6
			C312.7,921.6,309.3,934.8,314.1,946.1z"/>
		<g>
			<path d="M322.8,979.6c3.9,2.3,6.4,5.1,7.4,8.6l-9.4,5.5c-1-2.1-2.6-3.8-5-5.2c-2.4-1.4-5-1.6-7.9-0.8c-2.9,0.8-5.2,2.8-6.9,5.8
				l-11,19.1l-11.2-6.4l21.9-38.3l10,5.7L308,980C313.4,977.2,318.4,977.1,322.8,979.6z"/>
			<path d="M351.2,995.9c5.3,3,8.8,6.6,10.5,10.9c1.8,4.3,1.2,8.8-1.6,13.7l-13.9,24.3l-9.4-5.4l1.6-4.1c-5.6,0.8-10.7-0.1-15.2-2.7
				c-3.7-2.1-6.1-4.9-7.1-8.3c-1.1-3.4-0.6-6.9,1.4-10.5c2.2-3.8,5.6-5.9,10.1-6.2c4.6-0.3,9.5,1.6,14.9,5.9l5,4l1.9-3.3
				c1.2-2.1,1.4-4.1,0.5-5.9c-0.9-1.9-2.4-3.4-4.5-4.6c-3.7-2.1-7.7-2.4-12-0.8l-3-10.2c3.5-1.1,6.9-1.4,10.1-1
				C343.6,992.2,347.2,993.6,351.2,995.9z M329.5,1020c-0.7,1.3-0.9,2.5-0.4,3.8c0.4,1.2,1.4,2.3,2.7,3c2.6,1.5,5.9,1.8,9.8,1
				l2.2-3.9l-2.7-2.4c-3-2.6-5.4-3.9-7.4-3.9C331.8,1017.6,330.4,1018.4,329.5,1020z"/>
			<path d="M399.8,1023.7c4.5,2.6,7.3,6,8.5,10.3c1.2,4.3,0.5,8.7-2,13.2l-13.9,24.2l-11.2-6.4l13.1-22.8c1.1-1.9,1.3-3.9,0.7-5.8
				c-0.6-2-2-3.5-4.1-4.7c-2.2-1.3-4.4-1.6-6.7-1.1c-2.3,0.5-4,1.8-5.2,3.8l-12.7,22.2l-11.2-6.4l21.9-38.3l10,5.7l-1.9,4.8
				C390.3,1020.6,395.2,1021.1,399.8,1023.7z"/>
			<path d="M460.3,1034l11,6.3l-32.9,57.4l-9.9-5.6l1.7-4.3c-4.7,1.4-9.3,0.9-13.6-1.6c-5.2-3-8.4-7.3-9.5-13
				c-1.1-5.7-0.1-11.4,3.2-17c3.2-5.7,7.6-9.4,13.1-11.3c5.5-1.9,10.8-1.4,16,1.6c4.1,2.3,6.8,5.7,8,10.1L460.3,1034z M424.4,1077.7
				c1.8,1.1,3.8,1.4,5.9,1.2c2.1-0.3,4-1.1,5.8-2.5l4.6-8.1c0.3-2.2,0.1-4.4-0.7-6.3c-0.8-2-2.1-3.5-3.9-4.5
				c-2.7-1.5-5.4-1.8-8.1-0.8c-2.8,1-5,2.9-6.7,5.8c-1.7,2.9-2.2,5.8-1.7,8.7C420.1,1074,421.7,1076.2,424.4,1077.7z"/>
			<path d="M464.9,1113.9c-5.8-3.3-9.4-8-11-13.9c-1.6-6-0.8-11.8,2.4-17.4c3.2-5.6,7.8-9.3,13.8-10.9c6-1.7,11.8-0.8,17.6,2.5
				c5.7,3.3,9.4,7.9,11,13.9c1.6,6,0.8,11.8-2.4,17.4c-3.2,5.6-7.8,9.2-13.8,10.9C476.5,1118,470.6,1117.2,464.9,1113.9z
				 M470.5,1104.1c2.6,1.5,5.3,1.7,8.1,0.8c2.8-1,5-2.9,6.6-5.7c1.6-2.9,2.2-5.7,1.6-8.7c-0.6-2.9-2.1-5.1-4.7-6.6
				c-2.7-1.5-5.4-1.8-8.1-0.8c-2.8,1-5,2.9-6.7,5.8c-1.7,2.9-2.2,5.8-1.7,8.7C466.3,1100.4,467.9,1102.6,470.5,1104.1z"/>
		</g>
		<g>
			<path d="M555.1,1077.6h11.2v52h-10.4v-37.3l-17.9,27.3l-17.7-27.3v37.3h-10.5v-52H521l17,25.3L555.1,1077.6z"/>
		</g>
		<g>
			<path d="M587.1,1072.4c5.3-3,10.2-4.2,14.7-3.5c4.6,0.6,8.2,3.4,11,8.3l13.9,24.4l-9.4,5.4l-2.7-3.4c-2.2,5.2-5.5,9.1-10.1,11.7
				c-3.7,2.1-7.3,2.7-10.8,1.9c-3.5-0.8-6.3-3-8.3-6.6c-2.2-3.8-2.3-7.8-0.2-11.9c2-4.1,6.2-7.4,12.6-9.8l5.9-2.3l-1.9-3.3
				c-1.2-2.1-2.8-3.2-4.9-3.4c-2-0.2-4.1,0.3-6.3,1.6c-3.7,2.1-6,5.5-6.8,10l-10.3-2.6c0.8-3.6,2.2-6.6,4.3-9.2
				C580.1,1077.1,583.1,1074.7,587.1,1072.4z M596.8,1103.3c0.7,1.3,1.7,2,3,2.3c1.3,0.2,2.6,0,4-0.8c2.6-1.5,4.6-4.1,5.8-7.9
				l-2.2-3.9l-3.4,1.1c-3.7,1.3-6.1,2.7-7.1,4.4C596,1100.1,595.9,1101.7,596.8,1103.3z"/>
			<path d="M651.6,1036.6l-7.7,26.2l24.8,5.2l7.9,13.9l-39.4-9l9.8,17.1l-11.2,6.4L603,1039l11.2-6.4l18.1,31.7l5.8-20L651.6,1036.6
				z"/>
			<path d="M673.3,1023.2c5.3-3,10.2-4.2,14.7-3.5c4.6,0.6,8.2,3.4,11,8.3l13.9,24.4l-9.4,5.4l-2.7-3.4c-2.2,5.2-5.5,9.1-10.1,11.7
				c-3.7,2.1-7.3,2.7-10.8,1.9c-3.5-0.8-6.3-3-8.3-6.6c-2.2-3.8-2.3-7.8-0.2-11.9c2-4.1,6.2-7.4,12.6-9.8l5.9-2.3l-1.9-3.3
				c-1.2-2.1-2.8-3.2-4.8-3.4c-2-0.2-4.1,0.3-6.3,1.6c-3.7,2.1-6,5.5-6.8,10l-10.3-2.6c0.8-3.6,2.2-6.6,4.3-9.2
				C666.3,1027.9,669.3,1025.5,673.3,1023.2z M683,1054.1c0.7,1.3,1.7,2,3,2.3c1.3,0.2,2.6,0,4-0.8c2.6-1.5,4.6-4.1,5.8-7.9
				l-2.2-3.9l-3.4,1.1c-3.7,1.3-6.1,2.7-7.1,4.4C682.1,1050.9,682.1,1052.5,683,1054.1z"/>
			<path d="M721.9,995.4c4.5-2.6,8.9-3.3,13.2-2.2c4.3,1.1,7.7,3.9,10.3,8.4l13.8,24.2l-11.2,6.4l-13-22.8c-1.1-1.9-2.7-3.1-4.7-3.6
				c-2-0.4-4.1-0.1-6.2,1.1c-2.2,1.3-3.7,3-4.4,5.2c-0.7,2.2-0.5,4.4,0.6,6.3l12.7,22.2l-11.2,6.4l-21.9-38.3l10-5.7l3.1,4.1
				C714.4,1002,717.3,998.1,721.9,995.4z"/>
		</g>
	</g>
	<g>
		<g>
			<g>
				
					<rect x="440.5" y="1245.7" transform="matrix(2.338172e-002 -0.9997 0.9997 2.338172e-002 -836.5997 1724.2781)" class="st23" width="47.4" height="89.2"/>
				
					<rect x="463" y="1223.6" transform="matrix(2.338172e-002 -0.9997 0.9997 2.338172e-002 -813.9797 1703.1221)" class="st24" width="3.4" height="89.2"/>
				
					<rect x="462.9" y="1230.3" transform="matrix(2.338172e-002 -0.9997 0.9997 2.338172e-002 -820.8215 1709.5)" class="st24" width="3.4" height="89.2"/>
				
					<rect x="462.7" y="1237" transform="matrix(2.338172e-002 -0.9997 0.9997 2.338172e-002 -827.663 1715.8776)" class="st24" width="3.4" height="89.2"/>
				
					<rect x="462.5" y="1243.7" transform="matrix(2.338172e-002 -0.9997 0.9997 2.338172e-002 -834.5049 1722.2556)" class="st24" width="3.4" height="89.2"/>
				
					<rect x="462.4" y="1250.4" transform="matrix(2.338172e-002 -0.9997 0.9997 2.338172e-002 -841.3467 1728.6335)" class="st24" width="3.4" height="89.2"/>
				
					<rect x="462.2" y="1257" transform="matrix(2.338172e-002 -0.9997 0.9997 2.338172e-002 -848.1882 1735.0112)" class="st24" width="3.4" height="89.2"/>
				
					<rect x="462.1" y="1263.7" transform="matrix(2.338172e-002 -0.9997 0.9997 2.338172e-002 -855.0301 1741.3892)" class="st24" width="3.4" height="89.2"/>
				
					<rect x="428.8" y="1257" transform="matrix(2.338172e-002 -0.9997 0.9997 2.338172e-002 -847.1161 1691.5076)" class="st25" width="26.8" height="44.7"/>
			</g>
			<g>
				<path class="st26" d="M432.2,1279.2c0.1-4.7,4-8.5,8.7-8.4c1,0,1.9,0.2,2.8,0.5c-1.5-1-3.3-1.7-5.2-1.7
					c-5.3-0.1-9.7,4.1-9.8,9.5c-0.1,5.4,4.1,9.8,9.4,9.9c1.9,0,3.8-0.5,5.3-1.5c-0.9,0.3-1.8,0.4-2.8,0.4
					C435.8,1287.9,432,1283.9,432.2,1279.2z"/>
			</g>
			<path class="st26" d="M451.5,1279.7l4-1.6c0,0,0-0.1,0-0.1l-4.4,0.1l3-3.2c0,0,0,0,0,0l-4,2l1.3-4.3l-2.8,3.5l-0.6-4.5
				c0,0-0.1,0-0.1,0l-0.9,4.5l-2.7-3.7c0,0,0,0,0,0l1.1,4.4l-3.9-2.3c0,0,0,0-0.1,0.1l2.9,3.4c0,0-2.6-0.1-4.5-0.2c0,0,0,0,0,0
				c1.7,0.8,4,1.9,4,1.9l-4,1.6c1.7,0,4.4,0,4.4,0l-3,3.2c0,0,0,0.1,0.1,0.1l4-2l-1.3,4.3c0,0,0.1,0,0.1,0.1l2.8-3.6
				c0,0,0.5,3.1,0.7,4.5c0,0,0,0,0,0c0,0,0.1,0,0.1,0l0.9-4.4l2.6,3.7c0,0,0,0,0,0l-1.1-4.3l3.9,2.2c0,0,0,0,0-0.1
				c-1-1.2-2.8-3.3-2.8-3.3l4.3,0.2c0,0,0-0.1,0-0.1L451.5,1279.7z"/>
		</g>
		<g>
			<path d="M540.5,1279.9h-13v7.8h11.1v5.8h-11.1v7.8h13v5.8h-19.6v-33.1h19.6V1279.9z"/>
			<path d="M559.7,1274.1h6.4v33.1l-5.7,0l-0.4-2.3c-1.7,1.8-3.8,2.7-6.3,2.7c-3,0-5.5-1.1-7.4-3.3c-1.9-2.2-2.9-4.9-2.9-8.2
				c0-3.3,1-6,2.9-8.2c1.9-2.2,4.4-3.3,7.4-3.3c2.4,0,4.4,0.8,6,2.4V1274.1z M555,1302c1.1,0,2-0.3,2.8-0.9c0.8-0.6,1.5-1.5,1.9-2.5
				v-4.7c-0.4-1.1-1-1.9-1.9-2.6s-1.8-1-2.8-1c-1.5,0-2.8,0.6-3.7,1.7c-1,1.1-1.4,2.5-1.4,4.2s0.5,3.1,1.4,4.2
				C552.2,1301.5,553.4,1302,555,1302z"/>
			<path d="M575,1281.4c-1,0-1.8-0.4-2.5-1.1c-0.7-0.7-1.1-1.6-1.1-2.6c0-1,0.4-1.9,1.1-2.6c0.7-0.7,1.6-1.1,2.5-1.1
				c1,0,1.9,0.4,2.6,1.1c0.7,0.7,1.1,1.6,1.1,2.6c0,1-0.4,1.9-1.1,2.6C576.9,1281,576,1281.4,575,1281.4z M571.8,1307.2v-22h6.4v22
				H571.8z"/>
			<path d="M595.5,1301.4l3.1,4.6c-1.3,1.1-2.9,1.6-5,1.6c-2.9,0-5.1-0.7-6.6-2.2c-1.5-1.5-2.2-3.4-2.2-6v-9.5h-2.6v-4.8h2.6v-7.5
				h6.4v7.5h5.5v4.8h-5.5v9.6c0,0.9,0.2,1.6,0.6,2c0.4,0.5,1,0.7,1.7,0.7C594.3,1302.2,595,1302,595.5,1301.4z"/>
			<path d="M604.7,1281.4c-1,0-1.8-0.4-2.5-1.1c-0.7-0.7-1.1-1.6-1.1-2.6c0-1,0.4-1.9,1.1-2.6c0.7-0.7,1.6-1.1,2.5-1.1
				c1,0,1.9,0.4,2.6,1.1c0.7,0.7,1.1,1.6,1.1,2.6c0,1-0.4,1.9-1.1,2.6S605.7,1281.4,604.7,1281.4z M601.5,1307.2v-22h6.4v22H601.5z"
				/>
			<path d="M624,1307.7c-3.3,0-6.1-1.1-8.2-3.3c-2.2-2.2-3.3-4.9-3.3-8.2c0-3.2,1.1-6,3.3-8.2c2.2-2.2,4.9-3.3,8.2-3.3
				c3.3,0,6,1.1,8.2,3.3c2.2,2.2,3.3,4.9,3.3,8.2c0,3.2-1.1,6-3.3,8.2C630,1306.6,627.3,1307.7,624,1307.7z M624,1302
				c1.5,0,2.7-0.6,3.7-1.7c1-1.1,1.5-2.5,1.5-4.1c0-1.6-0.5-3-1.5-4.2c-1-1.1-2.2-1.7-3.7-1.7c-1.5,0-2.8,0.6-3.7,1.7
				c-1,1.1-1.4,2.5-1.4,4.2s0.5,3.1,1.4,4.2C621.2,1301.5,622.4,1302,624,1302z"/>
			<path d="M652.3,1284.7c2.6,0,4.7,0.8,6.3,2.3c1.6,1.6,2.4,3.6,2.4,6.2v13.9h-6.4v-13.1c0-1.1-0.4-2-1.1-2.7c-0.8-0.7-1.7-1-3-1
				c-1.3,0-2.3,0.4-3.2,1.2c-0.9,0.8-1.3,1.8-1.3,2.9v12.8h-6.4v-22h5.8l0.4,2.6C647.4,1285.7,649.6,1284.7,652.3,1284.7z"/>
		</g>
	</g>
</g>
</svg>
